<svg version="1.1" xmlns="http://www.w3.org/2000/svg" xmlns:xlink="http://www.w3.org/1999/xlink" width="220.02957" height="200.23158" viewBox="0,0,220.02957,200.23158"><g transform="translate(-89.80164,-46.17913)"><g data-paper-data="{&quot;isPaintingLayer&quot;:true}" fill-rule="nonzero" stroke-linejoin="miter" stroke-miterlimit="10" stroke-dasharray="" stroke-dashoffset="0" style="mix-blend-mode: normal"><path d="M206.91569,85.1764l60.7762,4.01388l13.49483,5.15843l20.32804,18.36298l6.6233,18.69473l0.68839,28.43735l-6.79689,16.61986l-8.03209,8.07928l-81.25038,-0.09006l-10.37551,-17.91827l-0.56456,-65.80766z" fill="#995900" stroke="#995900" stroke-width="2" stroke-linecap="round"/><path d="M264.45289,139.49173c-13.62406,0.3298 -24.81893,-5.61536 -25.00444,-13.2789c-0.18551,-7.66353 10.70858,-14.14341 24.33264,-14.47321c13.62406,-0.3298 24.81893,5.61536 25.00444,13.2789c0.18551,7.66353 -10.70858,14.14341 -24.33264,14.47321z" fill="#000000" stroke="none" stroke-width="0" stroke-linecap="butt"/><path d="M265.42791,173.95206c-13.62406,0.3298 -24.81893,-5.61536 -25.00444,-13.2789c-0.18551,-7.66353 10.70858,-14.14341 24.33264,-14.47321c13.62406,-0.3298 24.81892,5.61536 25.00443,13.2789c0.18551,7.66353 -10.70857,14.14341 -24.33263,14.47321z" fill="#000000" stroke="none" stroke-width="0" stroke-linecap="butt"/><path d="M213.97694,183.89247l-5.51184,-1.57481l22.83477,58.66173l-4.72443,4.33073l-6.29925,-1.57481l-20.86625,-61.41765l-39.76399,-1.18111l1.18111,-26.37809l-27.1655,6.29925l-26.7718,1.57481l-11.41738,3.54333l-3.93703,-1.57481l1.18111,-4.33073l3.54333,-2.75592l64.96098,-12.20479v-26.7718l-44.88213,-3.93703l-22.04736,-0.3937l-3.14962,-3.93703l3.93703,-3.93703l24.40958,-0.3937l10.23628,0.78741l30.70883,2.75592l-0.3937,-34.74428l47.24435,-0.78741l26.37809,-26.7718h7.48036l1.18111,4.33073l-27.1655,27.95291l38.97659,7.87406z" fill="#995900" stroke="#995900" stroke-width="2" stroke-linecap="round"/></g></g></svg>