<svg version="1.1" xmlns="http://www.w3.org/2000/svg" xmlns:xlink="http://www.w3.org/1999/xlink" width="57.41946" height="29.20313" viewBox="0,0,57.41946,29.20313"><g transform="translate(-197.98865,-152.00053)"><g data-paper-data="{&quot;isPaintingLayer&quot;:true}" fill="#9a9a9a" fill-rule="nonzero" stroke="#000000" stroke-linejoin="miter" stroke-miterlimit="10" stroke-dasharray="" stroke-dashoffset="0" style="mix-blend-mode: normal"><path d="M200.28386,160.39536l-1.21513,14.80249l3.53492,0.22093l0.77326,-3.97679l4.63959,-0.44186l-0.11047,4.19772l3.42446,0.11047l1.10466,-15.79668l-3.09305,0.22093l-0.55233,7.29077l-5.19191,0.77327l0.99419,-7.62217z" stroke-width="2" stroke-linecap="round"/><path d="M216.19101,161.94189l-0.55233,13.80829l2.87212,-0.11047l0.77327,-13.36642z" stroke-width="2" stroke-linecap="round"/><path d="M229.3365,161.94189l-8.17451,6.73845l0.77327,6.18611l13.14549,-1.98839l-0.11047,-2.98259l-3.97679,-2.43026l-1.76746,1.43606l0.6628,1.43607l-6.29658,1.32559l7.84311,-7.40124z" stroke-width="2" stroke-linecap="round"/><path d="M237.11657,162.56006l-1.11387,13.56895l3.24035,0.20252l0.70882,-3.64539l4.25296,-0.40504l-0.10126,3.84791l3.13908,0.10126l1.01261,-14.48029l-2.8353,0.20252l-0.50631,6.68321l-4.75926,0.70883l0.91135,-6.98699z" stroke-width="2" stroke-linecap="round"/><text transform="translate(248.44717,174.20365) scale(0.5,0.5)" font-size="40" xml:space="preserve" fill="#9a9a9a" fill-rule="nonzero" stroke="#000000" stroke-width="4" stroke-linecap="butt" stroke-linejoin="miter" stroke-miterlimit="10" stroke-dasharray="" stroke-dashoffset="0" font-family="Sans Serif" font-weight="normal" text-anchor="start" style="mix-blend-mode: normal"><tspan x="0" dy="0">:</tspan></text></g></g></svg>