<svg version="1.1" xmlns="http://www.w3.org/2000/svg" xmlns:xlink="http://www.w3.org/1999/xlink" width="177.41084" height="45.10232" viewBox="0,0,177.41084,45.10232"><g transform="translate(-147.17898,-172.95038)"><g data-paper-data="{&quot;isPaintingLayer&quot;:true}" fill="#ff9999" fill-rule="nonzero" stroke="#ff9999" stroke-width="2" stroke-linecap="round" stroke-linejoin="miter" stroke-miterlimit="10" stroke-dasharray="" stroke-dashoffset="0" style="mix-blend-mode: normal"><path d="M148.56575,196.41583l41.81172,10.96701h4.79806l-22.61945,-31.53015l4.79807,-1.71359l23.30489,30.84471l11.30973,2.39903l15.76507,-21.93401l5.82623,1.71359l-16.45051,23.64761l16.10779,-0.68544l34.61462,-33.24374l5.4835,3.76991l-32.21558,29.47383l24.67577,-1.37087l44.89619,-24.67577l1.71359,4.45534l-43.86804,22.96217l32.21559,-1.71359l0.34272,-9.59614h6.16895l12.6806,-22.61945l3.08447,0.34271l-12.6806,23.64761v9.93885l2.74175,2.74175l-98.70307,0.68544l-15.07963,2.05632l-3.08447,-4.45535l-47.98066,-9.59613z"/></g></g></svg>