<svg version="1.1" xmlns="http://www.w3.org/2000/svg" xmlns:xlink="http://www.w3.org/1999/xlink" width="23.90151" height="112.43325" viewBox="0,0,23.90151,112.43325"><g transform="translate(-214.44758,-158.1233)"><g data-paper-data="{&quot;isPaintingLayer&quot;:true}" fill="#737373" fill-rule="nonzero" stroke="#000000" stroke-width="2" stroke-linecap="round" stroke-linejoin="miter" stroke-miterlimit="10" stroke-dasharray="" stroke-dashoffset="0" style="mix-blend-mode: normal"><path d="M220.94831,176.0124l4.11498,0.26548l0.79645,-11.283l8.09721,-1.06193l-1.19467,-4.77868l-16.99088,0.66371l0.66371,4.11498h5.84061z"/><path d="M222.67394,194.86165l-1.99112,7.96447l-4.91142,0.92919l1.19467,3.45127l9.42463,-0.53096l-0.92919,-3.45127l-2.2566,-0.53096l2.92031,-8.89366l4.91142,-0.53096l-0.92919,-3.05305l-11.01752,0.66371l0.39822,3.58401z"/><path d="M222.14298,223.13553l-5.44239,12.47767l0.79645,2.65482h3.18579l2.2566,-6.1061l7.43351,0.13274l0.66371,4.91142h4.64594l1.46015,-14.33605l-7.56625,4.91142l-3.98224,-0.66371z"/><path d="M218.82445,256.22127l-1.32741,12.47767l11.15026,0.79645l0.66371,-3.58401l-7.83173,-0.13274l0.26548,-3.31853l5.44239,0.66371l0.26548,-3.31853l-4.64594,0.13274l0.26548,-0.92919l7.83173,-1.99112l-0.66371,-3.18579z"/></g></g></svg>