<svg version="1.1" xmlns="http://www.w3.org/2000/svg" xmlns:xlink="http://www.w3.org/1999/xlink" width="177.41084" height="45.10233" viewBox="0,0,177.41084,45.10233"><g transform="translate(-147.17898,-172.95037)"><g data-paper-data="{&quot;isPaintingLayer&quot;:true}" fill="#ff9999" fill-rule="nonzero" stroke="#ff9999" stroke-width="2" stroke-linecap="round" stroke-linejoin="miter" stroke-miterlimit="10" stroke-dasharray="" stroke-dashoffset="0" style="mix-blend-mode: normal"><path d="M148.22305,202.92748l47.98066,9.59613l3.08447,4.45535l15.07963,-2.05632l98.70307,-0.68544l-2.74175,-2.74175v-9.93885l12.6806,-23.64761l-3.08447,-0.34271l-12.6806,22.61945h-6.16895l-0.34272,9.59614l-32.21559,1.71359l43.86804,-22.96217l-1.71359,-4.45534l-44.89619,24.67577l-24.67577,1.37087l32.21558,-29.47383l-5.4835,-3.76991l-34.61462,33.24374l-16.10779,0.68544l16.45051,-23.64761l-5.82623,-1.71359l-15.76507,21.93401l-11.30973,-2.39903l-23.30489,-30.84471l-4.79807,1.71359l22.61945,31.53015h-4.79806l-41.81172,-10.96701z"/></g></g></svg>