<svg version="1.1" xmlns="http://www.w3.org/2000/svg" xmlns:xlink="http://www.w3.org/1999/xlink" width="203.0699" height="311.71326" viewBox="0,0,203.0699,311.71326"><g transform="translate(-156.41509,-15.80853)"><g data-paper-data="{&quot;isPaintingLayer&quot;:true}" fill-rule="nonzero" stroke-linejoin="miter" stroke-miterlimit="10" stroke-dasharray="" stroke-dashoffset="0" style="mix-blend-mode: normal"><path d="M203.4008,205.15515l5.4835,-60.66126l5.4835,-13.36604l18.84954,-19.8777l18.84954,-6.16894h28.44568l16.45051,7.1971l7.88254,8.22526l-2.05631,81.2244l-18.16411,9.93885l-65.80205,-1.02816z" fill="#995900" stroke="#995900" stroke-width="2" stroke-linecap="round"/><path d="M259.09263,148.94923c0,13.62805 -6.21434,24.67577 -13.88012,24.67577c-7.66578,0 -13.88012,-11.04772 -13.88012,-24.67577c0,-13.62805 6.21434,-24.67577 13.88012,-24.67577c7.66578,0 13.88012,11.04772 13.88012,24.67577z" fill="#000000" stroke="none" stroke-width="0" stroke-linecap="butt"/><path d="M293.56647,148.80845c0,13.62805 -6.21434,24.67577 -13.88012,24.67577c-7.66578,0 -13.88012,-11.04772 -13.88012,-24.67577c0,-13.62805 6.21434,-24.67576 13.88012,-24.67576c7.66578,0 13.88012,11.04771 13.88012,24.67576z" fill="#000000" stroke="none" stroke-width="0" stroke-linecap="butt"/><path d="M204.06033,205.28663l-4.2399,0.9422l-0.94221,38.15914l-20.72842,-1.4133l-11.77752,-25.43943v-14.13301l0.4711,-5.6532l5.18211,-4.23991l-0.9422,-8.95091l20.25733,-84.79809l-3.7688,-4.00435l-5.65321,1.4133l-11.30641,61.24307l-4.23991,15.54632l-3.7688,7.06651l0.94221,8.47981l-4.71101,5.65321l-1.4133,16.01742l2.3555,16.48852l10.36421,16.48851l7.06651,9.42201l23.08392,-0.4711v18.25515l20.72842,1.4133l-0.4711,40.51465l1.4133,7.06651l4.23991,6.12431l5.6532,-0.4711l0.4711,-5.65321l-2.82661,-4.23991l-0.9422,-44.75455l32.03483,0.94221l1.88441,34.39033l0.9422,9.89311l1.8844,5.65321h6.12431l1.8844,-3.29771l-3.29771,-21.19952v-25.43942l37.68805,-0.94221l0.9422,-19.31512l18.24769,1.4133l12.24861,-0.4711l9.42201,-16.48851l7.06651,-43.34125l1.88441,-58.41647l0.9422,-25.79275l-3.76881,-0.9422l-3.29771,1.8844l-1.8844,2.8266l-0.9422,19.31512l-0.4711,42.39905l-2.3555,8.47981l-4.711,42.87015l-7.53761,19.66845l-24.49723,-3.29771l-0.9422,-34.86144h-5.65321v-9.42201z" fill="#995900" stroke="#995900" stroke-width="2" stroke-linecap="round"/><path d="M193.09978,25.81631l0.9422,87.1536h160.17418l-0.9422,-96.10451z" fill="#666666" stroke="#666666" stroke-width="2" stroke-linecap="round"/><path d="M201.57959,31.94062l1.4133,76.31829l143.68566,-1.8844l-4.2399,-80.08709z" fill="#000000" stroke="#000000" stroke-width="2" stroke-linecap="round"/><text transform="translate(235.94809,60.41527) scale(0.5,0.5)" font-size="40" xml:space="preserve" fill="#f6f6f6" fill-rule="nonzero" stroke="none" stroke-width="1" stroke-linecap="butt" stroke-linejoin="miter" stroke-miterlimit="10" stroke-dasharray="" stroke-dashoffset="0" font-family="Sans Serif" font-weight="normal" text-anchor="start" style="mix-blend-mode: normal"><tspan x="0" dy="0">Time is </tspan><tspan x="0" dy="46.15px">     Up!</tspan></text></g></g></svg>