<svg xmlns="http://www.w3.org/2000/svg" xmlns:xlink="http://www.w3.org/1999/xlink" version="1.1" width="133.6929168701172" height="192.8246612548828" viewBox="0.8692809343338013 0.942221999168396 133.6929168701172 192.8246612548828">
  <!-- Exported by Scratch - http://scratch.mit.edu/ -->
  <path id="Back_Leg2" fill="#E29339" stroke="#000000" stroke-width="1.5283136585264248" stroke-linejoin="round" d="M 57.438 128.6846 C 50.8982 126.2105 38.033 120.7513 41.7158 114.6646 C 45.3978 108.5788 61.262 123.3557 65.2428 124.7813 C 65.2428 124.7813 70.4104 121.0333 70.7813 124.7866 C 71.153 128.54 66.2294 127.9423 66.2294 127.9423 C 66.2294 127.9423 71.8819 128.3136 69.9205 131.8605 C 67.9592 135.4075 65.485 132.5774 64.8573 131.4388 C 64.8573 131.4388 66.7586 134.9814 64.1226 135.9381 C 61.4858 136.894 59.9826 133.3603 61.9963 131.2644 C 61.9963 131.2644 60.6242 129.8898 57.438 128.6846 L 57.438 128.6846 L 57.438 128.6846 L 57.438 128.6846 L 57.438 128.6846 L 57.438 128.6846 Z "/>
  <path id="Back_Leg1" fill="#E29339" stroke="#000000" stroke-width="1.5283136585264248" stroke-linejoin="round" d="M 57.7911 82.6133 C 51.8669 85.9825 39.0347 89.4249 42.788 95.4667 C 46.5414 101.5079 61.6777 87.8978 65.6408 86.4244 C 65.6408 86.4244 70.8525 90.111 71.1784 86.3533 C 71.5051 82.5956 66.5901 83.2523 66.5901 83.2523 C 66.5901 83.2523 72.2385 82.816 70.234 79.2916 C 68.2318 75.7674 65.791 78.6271 65.1773 79.7724 C 65.1773 79.7724 67.0368 76.2079 64.3891 75.283 C 61.7414 74.3581 60.2793 77.9086 62.3187 79.9805 C 62.3179 79.9797 60.2519 81.2126 57.7911 82.6133 L 57.7911 82.6133 L 57.7911 82.6133 L 57.7911 82.6133 L 57.7911 82.6133 L 57.7911 82.6133 Z "/>
  <path id="Front_Leg2" fill="#E29339" stroke="#000000" stroke-width="1.5283136585264248" stroke-linejoin="round" d="M 101.1291 74.4723 C 95.2049 77.8416 82.372 81.2839 86.126 87.3258 C 89.8794 93.3676 105.0149 79.7568 108.9788 78.2835 C 108.9788 78.2835 114.1897 81.9699 114.5156 78.2123 C 114.8423 74.4546 109.9273 75.1113 109.9273 75.1113 C 109.9273 75.1113 115.5758 74.675 113.5713 71.1506 C 111.5691 67.6264 109.1274 70.4861 108.5138 71.6314 C 108.5138 71.6314 110.3733 68.0669 107.7256 67.142 C 105.0779 66.2171 103.6165 69.7675 105.6551 71.8395 C 105.6559 71.8387 103.5891 73.0715 101.1291 74.4723 L 101.1291 74.4723 L 101.1291 74.4723 L 101.1291 74.4723 L 101.1291 74.4723 L 101.1291 74.4723 Z "/>
  <path id="Front_Leg1" fill="#E29339" stroke="#000000" stroke-width="1.5283136585264248" stroke-linejoin="round" d="M 105.577 124.5748 C 99.322 121.8691 88.8535 113.6868 86.285 120.3194 C 83.7157 126.9519 103.6931 130.8577 107.2547 133.1377 C 107.2547 133.1377 107.4432 139.5185 110.6424 137.5186 C 113.8408 135.5202 110.3592 131.9876 110.3592 131.9876 C 110.3592 131.9876 114.1051 136.2382 115.7158 132.5167 C 117.3265 128.7975 113.5737 128.5666 112.2899 128.766 C 112.2899 128.766 116.2552 128.1072 115.4023 125.436 C 114.5487 122.7641 110.8324 123.7321 110.4037 126.6073 C 110.4036 126.608 108.1759 125.6982 105.577 124.5748 L 105.577 124.5748 L 105.577 124.5748 L 105.577 124.5748 L 105.577 124.5748 L 105.577 124.5748 Z "/>
  <path id="Body" fill="#E29339" stroke="#000000" stroke-width="1.5283136585264248" d="M 102.8503 86.5483 C 96.5398 82.2117 83.3817 87.503 75.2125 88.2114 C 70.9323 88.5823 64.14 83.8604 56.4494 84.4484 C 45.1077 85.3141 33.4108 91.1178 33.5001 104.5133 C 33.5894 117.9081 44.1291 125.908 58.5341 126.6275 C 67.2818 127.0651 70.5933 121.6787 75.5046 121.3247 C 81.8942 120.8643 91.0979 123.831 99.5241 119.4702 C 103.5172 117.4038 108.6159 109.0145 108.5701 101.8705 C 108.8235 95.1469 105.7237 88.5232 102.8503 86.5483 L 102.8503 86.5483 L 102.8503 86.5483 L 102.8503 86.5483 L 102.8503 86.5483 L 102.8503 86.5483 Z "/>
  <path id="Whisker6" fill="none" stroke="#000000" stroke-width="1.5283136585264248" stroke-linecap="round" d="M 120.3372 82.7392 L 123.5698 74.6994 "/>
  <path id="Whisker5" fill="none" stroke="#000000" stroke-width="1.5283136585264248" stroke-linecap="round" d="M 123.6223 84.4031 L 128.756 77.9866 "/>
  <path id="Whisker4" fill="none" stroke="#000000" stroke-width="1.5283136585264248" stroke-linecap="round" d="M 127.0124 86.7531 L 133.1885 84.9579 "/>
  <path id="Whisker3" fill="none" stroke="#000000" stroke-width="1.5283136585264248" stroke-linecap="round" d="M 121.8341 120.6093 L 125.7223 126.7449 "/>
  <path id="Whisker2" fill="none" stroke="#000000" stroke-width="1.5283136585264248" stroke-linecap="round" d="M 124.9991 118.4398 L 131.0893 123.9557 "/>
  <path id="Whisker1" fill="none" stroke="#000000" stroke-width="1.5283136585264248" stroke-linecap="round" d="M 127.1783 116.315 L 133.5622 117.1016 "/>
  <path id="Head" fill="#E29339" stroke="#000000" stroke-width="1.5283136585264248" stroke-linejoin="round" d="M 96.9874 117.0208 C 96.9874 117.0208 114.5802 135.5626 121.8341 120.6093 C 121.8341 120.6093 129.0904 120.4041 129.4996 102.4659 C 129.8505 87.0895 126.6678 86.3004 122.1589 84.0138 C 122.1206 83.9948 122.0473 83.9507 122.0473 83.9507 C 122.0473 83.9507 117.5053 68.4626 95.9496 85.9609 "/>
  <g id="L_Eye">
    <path id="White" fill="#FFFFFF" stroke="#000000" d="M 121.1305 112.0908 C 121.1575 111.373 121.4737 110.7341 121.9619 110.2807 C 122.4507 109.8281 123.1116 109.5609 123.8294 109.5879 C 124.5472 109.615 125.186 109.9312 125.6394 110.4193 C 126.0921 110.9082 126.3593 111.569 126.3322 112.2868 C 126.3052 113.0046 125.989 113.6435 125.5008 114.0969 C 125.0119 114.5495 124.3511 114.8167 123.6333 114.7897 C 122.9155 114.7626 122.2767 114.4464 121.8233 113.9583 C 121.3706 113.4694 121.1034 112.8086 121.1305 112.0908 L 121.1305 112.0908 L 121.1305 112.0908 L 121.1305 112.0908 L 121.1305 112.0908 Z " stroke-width="0.7641568292632124"/>
    <path id="Pupil" d="M 122.6307 111.5654 C 122.6476 111.1179 122.8446 110.7193 123.1497 110.4371 C 123.454 110.1542 123.8663 109.9877 124.3138 110.0046 C 124.7613 110.0214 125.1599 110.2185 125.442 110.5235 C 125.725 110.8278 125.8914 111.2401 125.8746 111.6876 C 125.8577 112.1351 125.6607 112.5337 125.3556 112.8159 C 125.0513 113.0988 124.639 113.2653 124.1915 113.2484 C 123.744 113.2315 123.3454 113.0345 123.0633 112.7295 C 122.7803 112.4252 122.6139 112.0128 122.6307 111.5654 L 122.6307 111.5654 L 122.6307 111.5654 L 122.6307 111.5654 L 122.6307 111.5654 Z " stroke-width="0.7641568292632124" fill="undefined"/>
  </g>
  <g id="R_Eye">
    <path id="White_1_" fill="#FFFFFF" stroke="#000000" d="M 122.0249 91.564 C 122.052 90.8462 122.3682 90.2074 122.8563 89.7539 C 123.3452 89.3013 124.006 89.0341 124.7238 89.0612 C 125.4416 89.0882 126.0805 89.4044 126.5339 89.8925 C 126.9865 90.3814 127.2537 91.0423 127.2267 91.7601 C 127.1996 92.4778 126.8834 93.1167 126.3953 93.5701 C 125.9064 94.0227 125.2456 94.29 124.5278 94.2629 C 123.81 94.2358 123.1711 93.9197 122.7177 93.4315 C 122.2651 92.9426 121.9979 92.2818 122.0249 91.564 L 122.0249 91.564 L 122.0249 91.564 L 122.0249 91.564 L 122.0249 91.564 Z " stroke-width="0.7641568292632124"/>
    <path id="Pupil_1_" d="M 123.5252 91.0386 C 123.5421 90.5911 123.7391 90.1925 124.0441 89.9104 C 124.3484 89.6274 124.7608 89.461 125.2082 89.4778 C 125.6557 89.4947 126.0544 89.6917 126.3365 89.9968 C 126.6194 90.3011 126.7859 90.7134 126.769 91.1609 C 126.7522 91.6083 126.5551 92.007 126.2501 92.2891 C 125.9458 92.5721 125.5335 92.7385 125.086 92.7217 C 124.6385 92.7048 124.2399 92.5078 123.9577 92.2027 C 123.6748 91.8984 123.5083 91.4861 123.5252 91.0386 L 123.5252 91.0386 L 123.5252 91.0386 L 123.5252 91.0386 L 123.5252 91.0386 Z " stroke-width="0.7641568292632124" fill="undefined"/>
  </g>
  <path id="Nose" fill="#EC008C" stroke="#000000" stroke-width="1.3098180781872348" d="M 128.5109 102.3813 C 128.5492 101.365 128.7675 100.4517 129.0891 99.7963 C 129.4108 99.14 129.8363 98.7431 130.2882 98.7602 C 130.74 98.7772 131.1345 99.205 131.4058 99.8836 C 131.6772 100.5614 131.8261 101.4885 131.7878 102.5048 C 131.7495 103.5212 131.5313 104.4344 131.2096 105.0899 C 130.8879 105.7461 130.4624 106.143 130.0106 106.126 C 129.5587 106.109 129.1643 105.6812 128.8929 105.0026 C 128.6215 104.3248 128.4726 103.3977 128.5109 102.3813 L 128.5109 102.3813 L 128.5109 102.3813 L 128.5109 102.3813 L 128.5109 102.3813 Z "/>
  <g id="L_Ear">
    <path id="Outer_Ear" fill="#E29339" stroke="#000000" stroke-width="1.5283136585264248" stroke-linecap="round" stroke-linejoin="round" d="M 101.2276 108.5219 C 101.2276 108.5219 97.6049 115.9743 95.9476 118.5156 C 94.2903 121.0577 92.7479 121.8086 93.5019 122.8243 C 94.2551 123.8391 103.6955 121.3189 106.5572 121.8191 "/>
    <path id="Inner_Ear" fill="#58595B" d="M 96.8455 120.7862 C 96.8455 120.7862 103.3746 119.1993 105.2288 119.5697 C 105.2274 119.5681 105.7784 119.6378 105.7784 119.6378 C 105.0268 118.0327 103.372 114.3594 102.81 112.1657 C 101.0849 115.7361 96.8455 120.7862 96.8455 120.7862 L 96.8455 120.7862 L 96.8455 120.7862 L 96.8455 120.7862 L 96.8455 120.7862 L 96.8455 120.7862 Z " stroke-width="0.7641568292632124"/>
  </g>
  <g id="R_Ear">
    <path id="Outer_Ear_1_" fill="#E29339" stroke="#000000" stroke-width="1.5283136585264248" stroke-linecap="round" stroke-linejoin="round" d="M 106.5514 83.0379 C 103.6594 83.3204 94.4362 80.0975 93.6088 81.052 C 92.7805 82.008 94.262 82.8737 95.7233 85.5333 C 97.1846 88.1914 100.236 95.8953 100.236 95.8953 "/>
    <path id="Inner_Ear_1_" fill="#58595B" d="M 96.7903 83.3353 C 96.7903 83.3353 103.1815 85.4091 105.0583 85.1793 C 105.0567 85.1816 105.6114 85.1528 105.6114 85.1528 C 104.7411 86.6968 102.8146 90.2343 102.0891 92.3803 C 100.6368 88.6901 96.7903 83.3353 96.7903 83.3353 L 96.7903 83.3353 L 96.7903 83.3353 L 96.7903 83.3353 L 96.7903 83.3353 L 96.7903 83.3353 Z " stroke-width="0.7641568292632124"/>
  </g>
  <path id="Tail" fill="#E29339" stroke="#000000" stroke-width="1.5283136585264248" d="M 37.7575 106.7568 C 37.267 108.8971 35.1371 110.2399 32.9927 109.7576 C 25.7458 108.131 20.1252 108.8826 16.287 111.9933 C 9.9072 117.1631 9.8517 127.5854 9.8531 127.6879 C 9.88 129.8959 8.1152 131.7006 5.9095 131.7283 C 3.7053 131.7561 1.8969 129.9896 1.8698 127.7854 C 1.8627 127.2025 1.8067 113.4518 11.2604 105.7895 C 17.0912 101.0647 24.9923 99.7788 34.7415 101.9685 C 36.892 102.4511 38.2446 104.5874 37.762 106.7379 C 37.7603 106.7439 37.7593 106.75 37.7575 106.7568 L 37.7575 106.7568 L 37.7575 106.7568 L 37.7575 106.7568 L 37.7575 106.7568 L 37.7575 106.7568 L 37.7575 106.7568 Z "/>
  <path id="ID0.8207501694560051" fill="none" stroke="#00FFFF" stroke-width="2" stroke-linecap="round" d="M 6.3 4.65 C 6.3 4.65 7.408 7.457 8.3 8.65 C 8.781 9.294 9.634 9.55 10.3 10 C 10.966 10.45 11.646 10.884 12.3 11.35 C 13.211 11.999 14.156 12.616 15 13.35 C 15.942 14.169 16.715 15.174 17.65 16 C 18.716 16.942 19.892 17.758 21 18.65 C 22.106 19.54 23.1 20.591 24.3 21.35 C 24.892 21.724 25.656 21.726 26.3 22 C 27.225 22.394 28.124 22.856 29 23.35 C 29.692 23.74 30.503 24.031 31 24.65 C 31.438 25.196 31.538 25.959 31.65 26.65 C 31.757 27.307 31.991 28.078 31.65 28.65 C 31.238 29.34 30.062 29.31 29.65 30 C 29.309 30.572 29.863 31.369 29.65 32 C 29.393 32.761 28.557 33.239 28.3 34 C 28.087 34.631 28.479 35.359 28.3 36 C 28.035 36.947 27.344 37.729 27 38.65 C 26.675 39.52 26.437 40.431 26.3 41.35 C 26.202 42.009 26.3 42.684 26.3 43.35 C 26.3 44.232 26.3 45.118 26.3 46 C 26.3 46.666 26.3 47.334 26.3 48 C 26.3 48.666 26.3 49.334 26.3 50 C 26.3 50.666 25.927 51.448 26.3 52 C 26.926 52.927 27.952 53.608 29 54 C 29.827 54.309 30.776 53.878 31.65 54 C 32.344 54.097 32.984 54.434 33.65 54.65 C 33.817 54.704 33.65 54.65 33.65 54.65 "/>
  <path id="ID0.2665573079138994" fill="none" stroke="#00FFFF" stroke-width="2" stroke-linecap="round" d="M 60.3 2.65 C 60.3 2.65 64.295 2.139 66.3 2 C 67.413 1.923 68.534 2 69.65 2 C 71.864 2 74.086 2 76.3 2 C 78.531 2 80.769 2 83 2 C 85.664 2 88.339 1.87 91 2 C 92.776 2.087 94.524 2.563 96.3 2.65 C 98.961 2.78 101.636 2.65 104.3 2.65 C 105.199 2.65 106.255 2.147 107 2.65 C 107.827 3.208 108.429 4.361 108.3 5.35 C 108.157 6.446 106.737 6.984 106.3 8 C 106.037 8.612 106.506 9.367 106.3 10 C 106.054 10.755 105.557 11.434 105 12 C 104.436 12.572 103.568 12.782 103 13.35 C 102.432 13.918 102.1 14.684 101.65 15.35 C 101.2 16.016 100.744 16.68 100.3 17.35 C 99.861 18.012 99.613 18.845 99 19.35 C 98.23 19.985 97.099 20.052 96.3 20.65 C 95.291 21.404 94.404 22.341 93.65 23.35 C 93.057 24.143 92.65 25.073 92.3 26 C 91.979 26.85 91.776 27.75 91.65 28.65 C 91.558 29.31 91.65 29.984 91.65 30.65 C 91.65 31.549 91.65 32.451 91.65 33.35 C 91.65 34.016 91.305 34.78 91.65 35.35 C 92.062 36.029 93.084 36.093 93.65 36.65 C 94.222 37.214 94.534 37.996 95 38.65 C 95.649 39.561 96.357 40.434 97 41.35 C 97.456 42 97.907 42.66 98.3 43.35 C 98.79 44.21 99.374 45.049 99.65 46 C 99.836 46.64 99.863 47.369 99.65 48 C 99.393 48.761 98.75 49.334 98.3 50 C 98.188 50.166 98.3 50 98.3 50 "/>
  <path id="ID0.10800086241215467" fill="none" stroke="#00FFFF" stroke-width="2" stroke-linecap="round" d="M 42.3 180 C 42.3 180 44.136 180.248 45 180 C 45.772 179.778 46.436 179.222 47 178.65 C 47.557 178.084 47.907 177.34 48.3 176.65 C 48.79 175.79 49.071 174.804 49.65 174 C 50.201 173.236 51.13 172.785 51.65 172 C 52.037 171.416 51.891 170.568 52.3 170 C 53.036 168.978 54.169 168.296 55 167.35 C 55.738 166.509 56.608 165.698 57 164.65 C 57.309 163.823 57.246 162.847 57 162 C 56.776 161.228 56.009 160.719 55.65 160 C 55.337 159.374 55.387 158.584 55 158 C 54.48 157.215 53.842 156.421 53 156 C 52.404 155.702 51.535 156.396 51 156 C 50.433 155.58 50.215 154.7 50.3 154 C 50.445 152.806 51.229 151.777 51.65 150.65 C 51.895 149.994 51.913 149.234 52.3 148.65 C 52.82 147.865 53.48 147.113 54.3 146.65 C 55.106 146.196 56.149 146.362 57 146 C 57.739 145.685 58.302 145.048 59 144.65 C 59.854 144.163 60.735 143.71 61.65 143.35 C 61.879 143.26 62.3 143.35 62.3 143.35 "/>
  <path id="ID0.2667909096926451" fill="none" stroke="#00FFFF" stroke-width="2" stroke-linecap="round" d="M 85 144.65 C 85 144.65 85.855 148.221 86.3 150 C 86.521 150.885 86.864 151.747 87 152.65 C 87.099 153.309 87 153.984 87 154.65 C 87 155.982 87.138 157.325 87 158.65 C 86.903 159.574 86.388 160.425 86.3 161.35 C 86.153 162.891 85.868 164.513 86.3 166 C 86.799 167.72 87.896 169.24 89 170.65 C 89.496 171.283 90.588 171.31 91 172 C 91.341 172.572 91 173.334 91 174 C 91 176.664 91.937 179.506 91 182 C 90.438 183.496 88.263 183.671 87 184.65 C 86.256 185.227 85.421 185.808 85 186.65 C 84.702 187.246 85 187.984 85 188.65 C 85 189.316 84.632 190.095 85 190.65 C 85.611 191.572 86.634 192.213 87.65 192.65 C 88.262 192.913 88.984 192.65 89.65 192.65 C 91.648 192.65 95.65 192.65 95.65 192.65 "/>
  <path id="ID0.8695582463406026" fill="none" stroke="#00FFFF" stroke-width="2" stroke-linecap="round" d="M 105 154 C 105 154 109.967 153.935 112.3 154.65 C 113.068 154.885 113.393 155.889 113.65 156.65 C 113.863 157.281 113.559 157.99 113.65 158.65 C 113.777 159.566 113.789 160.579 114.3 161.35 C 114.739 162.012 115.734 162.093 116.3 162.65 C 116.872 163.214 117.291 163.931 117.65 164.65 C 117.963 165.276 118.076 165.986 118.3 166.65 C 118.526 167.319 118.878 167.955 119 168.65 C 119.115 169.306 119.261 170.037 119 170.65 C 118.562 171.68 117.594 172.402 117 173.35 C 116.474 174.189 116.041 175.09 115.65 176 C 115.373 176.643 115.097 177.306 115 178 C 114.878 178.874 115 179.768 115 180.65 C 115 181.316 115 181.984 115 182.65 C 115 183.316 114.92 183.989 115 184.65 C 115.137 185.778 115.102 187.004 115.65 188 C 116.251 189.093 117.182 190.096 118.3 190.65 C 119.106 191.049 120.101 190.65 121 190.65 C 121.666 190.65 122.334 190.65 123 190.65 C 124.099 190.65 125.201 190.65 126.3 190.65 C 126.575 190.65 127 190.65 127 190.65 "/>
</svg>