<svg version="1.1" xmlns="http://www.w3.org/2000/svg" xmlns:xlink="http://www.w3.org/1999/xlink" width="153.7222" height="34.8966" viewBox="0,0,153.7222,34.8966"><g transform="translate(-163.37489,-51.96966)"><g data-paper-data="{&quot;isPaintingLayer&quot;:true}" fill-rule="nonzero" stroke="#000000" stroke-width="2" stroke-linecap="round" stroke-linejoin="miter" stroke-miterlimit="10" stroke-dasharray="" stroke-dashoffset="0" style="mix-blend-mode: normal"><path d="M176.70125,62.14139l0.74689,-5.41494l-3.92117,-3.361l-5.97511,0.37345l-3.17427,3.92116l0.18672,24.46058l5.41494,3.73444l5.22822,-0.18672l2.42738,-4.48133l-0.56016,-15.68464l-6.53527,0.37344l-0.37345,5.60166l3.361,0.56016l-0.74688,5.04149l-3.92117,0.18672v-16.80498z" fill="#ff8418"/><path d="M179.87552,57.47334l0.37345,26.14108l5.04149,0.18672l-0.18672,-10.08299l3.17427,0.37345l0.37344,10.26971h4.48133l0.37345,-27.63485l-5.04149,-3.54771l-4.66805,1.30705z" fill="#ff8418"/><path d="M185.10374,59.34056l-0.18672,8.58921h3.54772l-0.18672,-8.40249z" fill="#ff8888"/><path d="M195.88693,83.24098l0.74688,-27.07469l4.66805,-2.42739l2.80083,0.56016l2.98755,3.73444l3.361,-3.92116l4.10789,0.37344l2.98755,2.80083v27.26142l-5.22822,-0.18672v-23.52697l-2.98755,0.37344v23.52697l-4.85478,-0.37345l-0.18672,-24.46058l-3.17427,0.18672v24.27386l-4.85477,0.18672z" fill="#ff8418"/><path d="M232.85789,53.36546l-9.3361,0.37345l-3.361,3.17428l0.37344,23.34025l4.29461,4.10788l8.40249,0.37345l-0.56017,-7.28216l-7.28215,-0.56016l0.18672,-3.73444h8.40249l-0.18672,-7.84233h-8.21577l-0.18672,-3.36099l8.21577,-0.93361z" fill="#ff8418"/><path d="M250.50311,57.84679l0.37345,23.15353l3.17427,2.98755l6.34855,0.18672l2.42739,-2.80083v-24.27386l-3.17428,-3.54772l-6.34855,0.18673z" fill="#ff8418"/><path d="M265.81432,53.55218v12.13693l8.40249,17.92531l8.96265,-17.92531l0.74689,-12.32365l-7.65561,0.37345l-0.56016,16.61826l-2.24066,-0.56017l-0.18672,-15.49792z" fill="#ff8418"/><path d="M298.91598,53.32396l-9.3361,0.37345l-3.361,3.17427l0.37344,23.34024l4.29461,4.10789l8.40249,0.37344l-0.56017,-7.28216l-7.28215,-0.56016l0.18672,-3.73444h8.40249l-0.18672,-7.84233h-8.21577l-0.18672,-3.36099l8.21577,-0.93361z" fill="#ff8418"/><path d="M301.66494,53.55218l0.18672,30.24897l6.16183,-0.37345v-10.82988l2.42739,0.74689l0.37345,11.39004l5.22821,0.18672l-0.74689,-14.56431l-2.98755,-1.12033l2.24067,-1.12033v-11.9502l-3.92116,-3.17428z" fill="#ff8418"/><path d="M306.51971,59.15384l0.93361,7.46888l2.6141,-0.37345v-5.9751z" fill="#ff8888"/><path d="M254.51764,59.52728l0.56016,17.36515h3.54772l0.18672,-17.92531z" fill="#ff8888"/></g></g></svg>