<svg version="1.1" xmlns="http://www.w3.org/2000/svg" xmlns:xlink="http://www.w3.org/1999/xlink" width="129.01143" height="103.83819" viewBox="0,0,129.01143,103.83819"><g transform="translate(-186.17929,-145.63111)"><g data-paper-data="{&quot;isPaintingLayer&quot;:true}" fill-rule="nonzero" stroke-width="2" stroke-linecap="round" stroke-linejoin="miter" stroke-miterlimit="10" stroke-dasharray="" stroke-dashoffset="0" style="mix-blend-mode: normal"><path d="M187.18964,147.64351l1.00455,96.7722l125.90433,4.01823l-8.70615,-101.79499z" fill="#709cff" stroke="#709cff"/><path d="M195.68088,162.77881l1.98532,26.47096l21.83854,-0.66177l-2.6471,-9.59573l-13.23548,0.33089l-1.32355,-20.84588z" fill="none" stroke="#000000"/><path d="M222.81362,158.47728l0.99266,28.45628l18.52968,-0.33089l-3.97065,-29.11806z" fill="none" stroke="#000000"/><path d="M230.75491,168.07301l-0.66177,8.27217l4.96331,-0.33089v-7.94128z" fill="none" stroke="#000000"/><path d="M245.97571,186.27179l2.97798,-31.43427h10.91927l6.94863,31.76516l-7.6104,1.32355l-1.65444,-17.20612l-4.63242,1.32355l-0.33089,15.2208z" fill="none" stroke="#000000"/><path d="M270.79224,153.51397l2.97798,35.7358h12.57371l9.59572,-13.23548l-0.99266,-15.2208l-6.61774,-6.28686z" fill="none" stroke="#000000"/><path d="M278.07176,164.10236l1.65444,15.88257l9.59573,-6.94862z" fill="none" stroke="#000000"/><path d="M212.16788,202.61761v29.40924h12.92224l-1.33678,-35.20197z" fill="none" stroke="#000000"/><path d="M239.58908,223.05783l-0.31991,-24.95329l12.47665,24.95329l-1.27966,-26.23295h8.63768l-1.91949,37.42995l-7.35802,-1.27966l-5.11862,-14.39613l-1.27966,15.35588h-4.15888z" fill="none" stroke="#000000"/><path d="M280.53808,200.66385l-9.59743,-0.31991l-5.75845,9.91733v12.79656l7.67794,9.27751l11.51691,1.27965l7.99785,-9.91733l-0.31991,-6.07836l-10.87708,0.63983l0.63982,5.43854l1.91949,3.19914l-7.03811,0.63983l-5.43854,-8.31777l1.91949,-9.2775l9.2775,-1.59957z" fill="none" stroke="#000000"/></g></g></svg>